<svg viewBox="0 0 200 80" xmlns="http://www.w3.org/2000/svg">
  <defs>
    <style>
      .bg { fill: #0f0f0f; }
      .bracket { fill: #00ff41; }
      .text { fill: #00ff41; font-family: 'Source Code Pro', monospace; font-weight: bold; }
      .glow { filter: drop-shadow(0 0 5px #00ff41); }
    </style>
  </defs>
  
  <!-- Background -->
  <rect width="200" height="80" class="bg" rx="4" />
  
  <!-- Left bracket -->
  <path d="M10 15 Q10 10 15 10 L20 10 L20 15 L15 15 Q15 15 15 15 L15 65 Q15 65 15 65 L20 65 L20 70 L15 70 Q10 70 10 65 Z" class="bracket glow" />
  
  <!-- Text -->
  <text x="30" y="35" class="text glow" font-size="16">giobi.com</text>
  <text x="30" y="55" class="text glow" font-size="8">[ WEB DEV & LARAVEL ]</text>
  
  <!-- Right bracket -->
  <path d="M185 15 Q185 10 180 10 L175 10 L175 15 L180 15 Q180 15 180 15 L180 65 Q180 65 180 65 L175 65 L175 70 L180 70 Q185 70 185 65 Z" class="bracket glow" />
</svg>