<svg width="64" height="64" viewBox="0 0 64 64" fill="none" xmlns="http://www.w3.org/2000/svg">
  <!-- Fighting game style email icon with energy blast -->
  <defs>
    <linearGradient id="energyGrad" x1="0%" y1="0%" x2="100%" y2="100%">
      <stop offset="0%" style="stop-color:#4a508e;stop-opacity:1" />
      <stop offset="50%" style="stop-color:#479dc0;stop-opacity:1" />
      <stop offset="100%" style="stop-color:#d99449;stop-opacity:1" />
    </linearGradient>
    <filter id="energyGlow">
      <feGaussianBlur stdDeviation="2" result="coloredBlur"/>
      <feMerge> 
        <feMergeNode in="coloredBlur"/>
        <feMergeNode in="SourceGraphic"/>
      </feMerge>
    </filter>
  </defs>
  
  <!-- Energy waves -->
  <g filter="url(#energyGlow)">
    <path d="M8 32 Q16 28 24 32 Q32 36 40 32 Q48 28 56 32" stroke="#479dc0" stroke-width="2" fill="none" opacity="0.7"/>
    <path d="M4 28 Q12 24 20 28 Q28 32 36 28 Q44 24 52 28" stroke="#d99449" stroke-width="1.5" fill="none" opacity="0.5"/>
    <path d="M6 36 Q14 32 22 36 Q30 40 38 36 Q46 32 54 36" stroke="#4a508e" stroke-width="1.5" fill="none" opacity="0.5"/>
  </g>
  
  <!-- Main envelope with energy effect -->
  <g filter="url(#energyGlow)">
    <!-- Envelope body -->
    <rect x="12" y="20" width="40" height="28" rx="2" fill="url(#energyGrad)" stroke="#d99449" stroke-width="2"/>
    
    <!-- Envelope flap -->
    <path d="M12 20 L32 35 L52 20" stroke="#d99449" stroke-width="2" fill="none"/>
    
    <!-- Energy sparks around envelope -->
    <circle cx="10" cy="25" r="2" fill="#479dc0"/>
    <circle cx="54" cy="30" r="1.5" fill="#d99449"/>
    <circle cx="8" cy="40" r="1" fill="#4a508e"/>
    <circle cx="56" cy="45" r="1.5" fill="#479dc0"/>
    
    <!-- Lightning bolts -->
    <path d="M58 22 L54 26 L56 26 L52 30" stroke="#d99449" stroke-width="2" stroke-linecap="round"/>
    <path d="M6 42 L10 46 L8 46 L12 50" stroke="#479dc0" stroke-width="2" stroke-linecap="round"/>
  </g>
  
  <!-- @ symbol with energy -->
  <g transform="translate(32, 32)">
    <circle r="6" fill="none" stroke="#be6a3b" stroke-width="2"/>
    <circle r="3" fill="#be6a3b"/>
    <path d="M3 0 Q6 0 6 3 Q6 6 3 6" stroke="#be6a3b" stroke-width="2" fill="none"/>
  </g>
</svg>