<svg width="64" height="64" viewBox="0 0 64 64" fill="none" xmlns="http://www.w3.org/2000/svg">
  <!-- Fighting game style location icon with fist and impact -->
  <defs>
    <linearGradient id="fistGrad" x1="0%" y1="0%" x2="100%" y2="100%">
      <stop offset="0%" style="stop-color:#479dc0;stop-opacity:1" />
      <stop offset="100%" style="stop-color:#4a508e;stop-opacity:1" />
    </linearGradient>
    <filter id="glow">
      <feGaussianBlur stdDeviation="3" result="coloredBlur"/>
      <feMerge> 
        <feMergeNode in="coloredBlur"/>
        <feMergeNode in="SourceGraphic"/>
      </feMerge>
    </filter>
  </defs>
  
  <!-- Ground impact effect -->
  <ellipse cx="32" cy="56" rx="20" ry="6" fill="#d99449" opacity="0.3"/>
  
  <!-- Fist -->
  <g filter="url(#glow)">
    <!-- Forearm -->
    <rect x="20" y="35" width="24" height="16" rx="8" fill="url(#fistGrad)" stroke="#d99449" stroke-width="2"/>
    
    <!-- Knuckles -->
    <circle cx="25" cy="28" r="6" fill="url(#fistGrad)" stroke="#d99449" stroke-width="2"/>
    <circle cx="32" cy="26" r="7" fill="url(#fistGrad)" stroke="#d99449" stroke-width="2"/>
    <circle cx="39" cy="28" r="6" fill="url(#fistGrad)" stroke="#d99449" stroke-width="2"/>
    
    <!-- Impact lines -->
    <path d="M15 20 L25 25 M45 20 L35 25 M32 15 L32 25" stroke="#d99449" stroke-width="3" stroke-linecap="round"/>
    <path d="M12 25 L22 30 M48 25 L38 30" stroke="#be6a3b" stroke-width="2" stroke-linecap="round"/>
  </g>
  
  <!-- Location pin merged with impact -->
  <g transform="translate(28, 8)">
    <path d="M4 0 C8 0 12 4 12 8 C12 12 4 20 4 20 S-4 12 -4 8 C-4 4 0 0 4 0 Z" fill="#d99449" stroke="#be6a3b" stroke-width="1"/>
    <circle cx="4" cy="8" r="3" fill="#be6a3b"/>
  </g>
</svg>