<svg width="64" height="64" viewBox="0 0 64 64" fill="none" xmlns="http://www.w3.org/2000/svg">
  <!-- Fighting game style thunder/lightning icon -->
  <defs>
    <linearGradient id="thunderGrad" x1="0%" y1="0%" x2="100%" y2="100%">
      <stop offset="0%" style="stop-color:#d99449;stop-opacity:1" />
      <stop offset="50%" style="stop-color:#479dc0;stop-opacity:1" />
      <stop offset="100%" style="stop-color:#4a508e;stop-opacity:1" />
    </linearGradient>
    <filter id="thunderGlow">
      <feGaussianBlur stdDeviation="2" result="coloredBlur"/>
      <feMerge> 
        <feMergeNode in="coloredBlur"/>
        <feMergeNode in="SourceGraphic"/>
      </feMerge>
    </filter>
  </defs>
  
  <!-- Energy aura -->
  <g filter="url(#thunderGlow)" opacity="0.4">
    <circle cx="32" cy="32" r="28" fill="none" stroke="#d99449" stroke-width="2" stroke-dasharray="8,4"/>
  </g>
  
  <!-- Main lightning bolt -->
  <g filter="url(#thunderGlow)">
    <path d="M28 8 L20 28 L28 28 L24 56 L40 24 L32 24 L36 8 Z" 
          fill="url(#thunderGrad)" 
          stroke="#be6a3b" 
          stroke-width="2" 
          stroke-linejoin="round"/>
    
    <!-- Inner lightning -->
    <path d="M30 12 L24 26 L30 26 L28 48 L36 26 L32 26 L34 12 Z" 
          fill="#d99449" 
          opacity="0.8"/>
  </g>
  
  <!-- Energy sparks -->
  <g fill="#479dc0" opacity="0.8">
    <circle cx="12" cy="20" r="2"/>
    <circle cx="52" cy="18" r="1.5"/>
    <circle cx="8" cy="45" r="1"/>
    <circle cx="56" cy="40" r="2"/>
    <circle cx="15" cy="55" r="1.5"/>
    <circle cx="50" cy="52" r="1"/>
  </g>
  
  <!-- Power lines -->
  <g stroke="#d99449" stroke-width="1.5" stroke-linecap="round" opacity="0.6">
    <path d="M6 12 L12 18 M52 8 L58 14"/>
    <path d="M58 50 L52 56 M12 58 L6 52"/>
  </g>
</svg>